<svg xmlns="http://www.w3.org/2000/svg" xmlns:svgjs="http://svgjs.dev/svgjs" xmlns:xlink="http://www.w3.org/1999/xlink" width="1000" height="1000" version="1.1" viewBox="0 0 1000 1000"><rect width="1000" height="1000" fill="#fff"/><g transform="matrix(0.7,0,0,0.7,149.57575757575756,419.697208841725)"><svg xmlns="http://www.w3.org/2000/svg" xmlns:xlink="http://www.w3.org/1999/xlink" width="1000" height="237" data-background-color="#ffffff" preserveAspectRatio="xMidYMid meet" viewBox="0 0 396 94"><g id="tight-bounds" transform="matrix(1,0,0,1,0.2400000000000091,0.14266858075143318)"><svg width="395.52" height="93.715" viewBox="0 0 395.52 93.715"><g><svg width="395.52" height="93.715" viewBox="0 0 527.501 124.986"><g><rect id="o-0" width="4.179" height="108.526" x="406.46" y="8.23" fill="#000" fill-opacity="1" stroke="transparent" stroke-width="0" class="rect-o-0" data-fill-palette-color="primary" data-palette-color="#0074d9" opacity="1" rx="1%"/></g><g transform="matrix(1,0,0,1,0,17.273779147583163)"><svg width="395.52" height="90.439" viewBox="0 0 395.52 90.439"><g><svg width="395.52" height="90.439" viewBox="0 0 395.52 90.439"><g><svg width="395.52" height="46.339" viewBox="0 0 395.52 46.339"><g transform="matrix(1,0,0,1,0,0)"><svg width="395.52" height="46.339" data-palette-color="#0074d9" viewBox="2.54 -34.86 295.05 34.57"><path id="text-0" fill="#000" d="M17.53-33.5L20.02-33.5Q20.19-33.54 20.57-33.58 20.95-33.62 21.04-33.64L21.04-33.64 23.95-18.77 27.76-33.69 44.92-33.69Q45.61-33.69 45.61-30.81L45.61-30.81 45.61-2.05Q45.56-1.66 45.39-1.42 45.21-1.17 44.89-1.09 44.56-1 44.37-0.99 44.19-0.98 43.75-0.98L43.75-0.98Q42.21-0.98 39.07-0.93 35.94-0.88 34.38-0.88L34.38-0.88Q33.15-1.64 33.15-6.49L33.15-6.49Q33.15-7.71 33.2-9.68 33.25-11.65 33.25-12.6L33.25-12.6 33.25-14.75Q33.25-14.92 33.23-15.3 33.2-15.67 33.2-15.87L33.2-15.87Q33.2-16.7 33.3-18.55L33.3-18.55 33.3-16.7Q32.96-15.26 31.98-12.3 31.01-9.35 30.66-7.91L30.66-7.91 29.2-1.66Q28.81-0.98 26.76-0.98L26.76-0.98Q25.76-0.98 24.16-1.03 22.56-1.07 21.73-1.07L21.73-1.07Q21.48-1.07 20.9-1.05 20.31-1.03 20.17-1.03L20.17-1.03Q19.38-1.03 19.04-1.22 18.7-1.42 18.55-2L18.55-2Q16.26-12.18 15.38-16.41L15.38-16.41 14.5-20.61Q14.16-13.5 14.16-5.57L14.16-5.57 14.16-1.27 2.64-1.27Q2.64-1.42 2.71-1.9 2.78-2.39 2.78-2.44L2.78-2.44Q2.59-7.13 2.59-14.01L2.59-14.01Q2.59-16.09 2.56-19.54 2.54-23 2.54-24.32L2.54-24.32 2.54-32.96Q2.54-33.28 2.64-33.44 2.73-33.59 3.13-33.89L3.13-33.89 5.37-33.89Q6.59-33.89 7.13-33.94L7.13-33.94Q9.59-33.94 13.12-33.72 16.65-33.5 17.53-33.5L17.53-33.5ZM33.3-18.75L33.3-18.7 33.3-18.75ZM50.19-1.81L50.19-31.54Q50.19-33.01 50.31-33.25L50.31-33.25Q50.53-33.59 51.02-33.59L51.02-33.59 51.61-33.59Q52-33.59 52.15-33.54L52.15-33.54 53.42-33.54Q55.88-33.54 60.87-33.67 65.87-33.79 68.36-33.79L68.36-33.79 74.85-33.79Q75.49-33.72 75.49-33.15L75.49-33.15 75.49-25Q75.46-24.85 75.4-24.74 75.34-24.63 75.3-24.6 75.27-24.56 75.07-24.43 74.88-24.29 74.8-24.22L74.8-24.22 63.47-24.22 63.47-21.19 64.55-21.19Q65.96-21.19 68.87-21.29 71.77-21.39 73.34-21.39L73.34-21.39Q74.02-21.39 74.27-21.12 74.51-20.85 74.51-20.36L74.51-20.36Q74.51-20.24 74.46-19.95 74.41-19.65 74.41-19.53L74.41-19.53 74.41-18.6Q74.41-18.51 74.44-18.2 74.46-17.9 74.46-17.68L74.46-17.68 74.46-16.99Q74.46-16.46 74.51-15.92 74.56-15.38 74.56-14.99L74.56-14.99 74.56-14.36Q74.44-14.06 74.36-13.96 74.29-13.87 74.12-13.87L74.12-13.87 74.12-13.92Q73.22-13.92 71.01-13.79 68.8-13.67 67.48-13.67L67.48-13.67 63.57-13.67 63.57-10.55Q63.77-10.55 64.16-10.52 64.55-10.5 64.74-10.5L64.74-10.5Q65.84-10.5 67.99-10.57 70.14-10.64 71.09-10.64L71.09-10.64 74.22-10.64Q75.49-10.64 75.83-10.35L75.83-10.35Q75.95-10.21 76.02-10.06L76.02-10.06 76.02-2.25Q76.02-1.73 75.83-1.46 75.63-1.2 75.1-1.17L75.1-1.17 50.93-1.17 50.19-1.81ZM102.83-33.59L111.18-33.59Q111.47-33.5 111.63-32.75 111.79-32.01 111.81-30.88 111.84-29.76 111.81-28.74 111.79-27.71 111.75-26.64 111.71-25.56 111.71-25.29L111.71-25.29Q111.66-24.32 111.66-22.56L111.66-22.56 111.66-19.97Q111.66-18.26 111.71-15.28 111.76-12.3 111.76-10.89L111.76-10.89 111.76-2Q111.66-1.17 110.4-1.17L110.4-1.17 96.72-1.17Q96.28-1.27 95.6-3.22L95.6-3.22Q95.14-4.52 94.05-7.47 92.96-10.42 92.18-12.66 91.4-14.89 90.77-16.99L90.77-16.99 90.77-17.14 90.77-16.99Q90.69-15.38 90.62-12.19 90.55-9.01 90.47-7.42L90.47-7.42 90.47-2.44Q90.47-1.71 90.3-1.43 90.13-1.15 89.4-0.98L89.4-0.98 79.34-0.98 78.27-2.05Q78.39-6.1 78.46-14.75 78.54-23.39 78.66-27.54L78.66-27.54 78.66-32.81Q78.9-33.69 79.24-33.69L79.24-33.69 79.24-33.59Q80.9-33.59 84.46-33.69 88.01-33.79 89.79-33.79L89.79-33.79 93.89-33.79Q93.92-33.79 93.96-33.76L93.96-33.76Q94.4-33.59 94.45-33.37L94.45-33.37 94.48-33.2Q95.36-30.83 96.26-28.3 97.16-25.76 98.41-22.16 99.65-18.55 100.14-17.19L100.14-17.19 100.14-20.8Q100.63-29.39 100.63-33.01L100.63-33.01Q100.63-33.4 101.17-33.5 101.7-33.59 102.83-33.59L102.83-33.59ZM114.1-24.71L114.1-24.71 114.1-33.5 142.52-33.5Q142.91-33.42 143.01-33.19 143.11-32.96 143.11-32.52L143.11-32.52 143.11-24.71Q143.06-24.12 142.42-24.12L142.42-24.12 135.49-24.12 135.49-1.66Q135.49-1.64 135.47-1.54 135.44-1.44 135.44-1.42 135.44-1.39 135.42-1.32 135.39-1.25 135.37-1.22 135.34-1.2 135.32-1.14 135.3-1.07 135.26-1.06 135.22-1.05 135.16-1.01 135.1-0.98 135.04-0.95 134.98-0.93 134.89-0.92 134.81-0.9 134.71-0.88L134.71-0.88 133.15-0.88Q130.02-0.88 130.02-1.07L130.02-1.07Q129.83-1.07 129.44-1.05 129.05-1.03 128.85-1.03L128.85-1.03 126.9-1.03Q126.34-1.03 125.3-1 124.26-0.98 123.67-0.98L123.67-0.98 122.31-0.98 121.33-1.66 121.33-6.93Q121.35-8.35 121.54-12.99 121.72-17.63 121.72-20.31L121.72-20.31 121.72-20.95Q121.72-21.14 121.75-21.56 121.77-21.97 121.77-22.17L121.77-22.17Q121.77-22.39 121.75-23.06 121.72-23.73 121.72-23.93L121.72-23.93 115.62-23.93Q115.08-23.93 114.59-24.11 114.1-24.29 114.1-24.71ZM143.4-16.21L143.4-17.68 143.35-18.21Q143.81-22.19 144.23-23.75L144.23-23.75Q145.18-27.42 147.65-29.88L147.65-29.88 148.23-30.47Q149.4-31.84 151.8-32.81L151.8-32.81 152.72-32.81Q155.12-33.81 160.59-34.67L160.59-34.67Q161.95-34.67 163.45-34.46 164.96-34.25 166.79-33.78 168.62-33.3 170.31-32.26 172.01-31.23 173.13-29.79L173.13-29.79 173.13-29.1Q177.14-24.1 177.14-17.87L177.14-17.87Q177.14-10.86 173.92-6.45L173.92-6.45 172.94-5.22Q171.82-3.83 170.14-2.83 168.47-1.83 166.59-1.31 164.71-0.78 162.99-0.56 161.27-0.34 159.56-0.34L159.56-0.34Q157.05-0.34 154.76-0.94 152.48-1.54 150.49-2.81 148.5-4.08 146.99-5.93 145.47-7.79 144.53-10.41 143.59-13.04 143.4-16.21L143.4-16.21ZM156.83-18.55L156.83-17.48Q156.83-8.89 160.1-8.89L160.1-8.89Q161-8.89 161.67-9.23 162.34-9.57 162.76-10.28 163.17-10.99 163.44-11.72 163.71-12.45 163.82-13.55 163.93-14.65 163.97-15.48 164-16.31 164-17.48L164-17.48 164-18.36Q164-19.63 163.86-20.8 163.71-21.97 163.36-23.16 163-24.34 162.27-25.06 161.54-25.78 160.49-25.78L160.49-25.78Q156.83-25.78 156.83-18.55L156.83-18.55ZM180.65-0.98L180.65-33.59 185.19-33.59Q187.29-33.59 191.91-33.69 196.52-33.79 198.82-33.79L198.82-33.79Q200.79-33.79 202.51-33.57 204.24-33.35 205.91-32.76 207.58-32.18 208.76-31.27 209.95-30.37 210.68-28.89 211.41-27.42 211.41-25.49L211.41-25.49Q211.41-22.83 210.17-20.95 208.92-19.07 206.34-17.77L206.34-17.77Q207.36-17.33 208.12-16.63 208.87-15.92 209.28-15.41 209.68-14.89 210.06-13.68 210.44-12.48 210.51-12.1 210.58-11.72 210.83-10.23L210.83-10.23Q210.9-9.89 210.93-9.72L210.93-9.72Q211.02-8.74 211.76-6.14 212.49-3.54 212.49-2.15L212.49-2.15Q212.49-1.27 211.95-1.27L211.95-1.27Q210.49-1.27 207.52-1.25 204.55-1.22 203.11-1.22L203.11-1.22Q202.53-1.27 201.35-1.27L201.35-1.27 199.69-1.27Q199.21-1.42 198.74-2.78 198.28-4.15 198.08-5.86L198.08-5.86 197.55-10.21Q197.4-10.74 197.31-10.97 197.23-11.21 197.01-11.54 196.79-11.87 196.41-11.99 196.03-12.11 195.45-12.11L195.45-12.11 194.32-12.11 194.32-2.34Q194.32-2.27 194.32-2.11 194.32-1.95 194.32-1.89 194.32-1.83 194.32-1.71 194.32-1.59 194.3-1.53 194.27-1.46 194.25-1.37 194.23-1.27 194.19-1.23 194.15-1.2 194.09-1.14 194.03-1.07 193.95-1.05 193.86-1.03 193.75-1 193.64-0.98 193.49-0.98L193.49-0.98 180.65-0.98ZM194.47-20.7L194.47-20.7Q194.52-20.65 194.62-20.5 194.71-20.34 194.81-20.24 194.91-20.14 195.01-20.12L195.01-20.12Q195.74-20.12 196.47-20.28 197.2-20.43 197.97-20.8 198.74-21.17 199.22-21.92 199.69-22.68 199.69-23.73L199.69-23.73Q199.69-26.27 194.81-26.27L194.81-26.27Q194.32-26.15 194.32-25.88L194.32-25.88 194.32-24.95Q194.32-24.24 194.4-22.83 194.47-21.41 194.47-20.7ZM227.77-0.93L214.39-0.93 214.39-33.01Q214.41-33.2 214.78-33.36 215.15-33.52 215.22-33.59L215.22-33.59 228.35-33.59 228.35-1.81Q228.23-1.29 228.12-1.11 228.01-0.93 227.77-0.93L227.77-0.93ZM232.84-27.93L232.84-27.88Q232.75-28.37 232.75-30.66L232.75-30.66Q232.75-33.3 233.23-33.79L233.23-33.79 246.52-33.79 246.52-13.28Q246.52-10.11 248.37-10.11L248.37-10.11Q249.15-10.11 249.67-10.8 250.18-11.5 250.18-12.45L250.18-12.45 250.18-16.06Q250.32-26.76 250.32-26.86L250.32-26.86Q250.32-31.1 250.23-33.01L250.23-33.01Q250.23-33.69 250.91-33.98L250.91-33.98 264.48-33.98 264.48-30.18Q264.17-20.92 264.09-18.26L264.09-18.26 264.09-16.75Q264.09-16.46 264.07-15.97 264.05-15.48 264.05-15.28L264.05-15.28Q264.05-14.45 264.09-14.11L264.09-14.11 264.09-12.21Q264.09-8.81 263.41-7.32L263.41-7.32 263.41-7.23Q262.63-5.4 261.16-4.06 259.7-2.73 257.82-1.99 255.94-1.25 253.96-0.92 251.98-0.59 249.79-0.59L249.79-0.59Q249.1-0.59 248.76-0.73L248.76-0.73 248.18-0.73Q248.18-0.49 247.44-0.49L247.44-0.49 247.44-0.44Q246.91-0.42 244.32-0.68L244.32-0.68 243.2-0.68Q241.66-0.85 240.23-1.37 238.8-1.88 237.46-2.82 236.12-3.76 235.1-5.05 234.09-6.35 233.45-8.2 232.82-10.06 232.75-12.26L232.75-12.26Q232.77-13.53 232.76-15.77 232.75-18.02 232.77-19.86 232.8-21.7 232.89-23.44L232.89-23.44 232.89-24.12Q232.89-24.24 232.92-24.51 232.94-24.78 232.94-24.9L232.94-24.9Q232.94-25.27 232.89-26 232.84-26.73 232.84-27.1L232.84-27.1 232.84-27.93ZM287.28-24.12L287.28-24.12Q286.63-24.12 286.21-24.32 285.8-24.51 285.55-24.8 285.31-25.1 285-25.39 284.7-25.68 284.04-25.88 283.38-26.07 282.35-26.07L282.35-26.07Q282.04-26.07 281.58-26.01 281.13-25.95 280.6-25.68 280.06-25.42 280.06-25L280.06-25Q280.06-24.54 280.51-24.21 280.96-23.88 281.54-23.74 282.11-23.61 282.83-23.43 283.55-23.24 283.84-23.1L283.84-23.1 287.43-22.22Q289.02-21.78 290.29-21.29 291.56-20.8 292.99-19.96 294.41-19.12 295.37-18.09 296.32-17.07 296.95-15.52 297.59-13.96 297.59-12.11L297.59-12.11Q297.59-9.86 297-8.11L297-8.11 297-8.15Q296.49-6.59 295.56-5.36 294.63-4.13 293.36-3.31 292.09-2.49 290.8-1.94 289.51-1.39 287.81-1.06 286.11-0.73 284.78-0.57 283.45-0.42 281.72-0.29L281.72-0.29Q274.03-0.68 271.42-2.73L271.42-2.73 271.42-3.03Q269.19-4.69 268.13-6.64 267.07-8.59 266.87-11.04L266.87-11.04Q266.87-11.62 267.41-11.62L267.41-11.62Q267.56-11.62 267.85-11.6 268.14-11.57 268.29-11.57L268.29-11.57 270.78-11.57Q271.12-11.62 271.76-11.62L271.76-11.62 272.39-11.62Q272.59-11.62 272.73-11.57L272.73-11.57Q274.15-11.62 277.57-11.62L277.57-11.62 278.69-11.62Q279.18-11.62 279.45-11.33 279.72-11.04 279.88-10.61 280.03-10.18 280.24-9.75 280.45-9.33 280.99-9.03 281.52-8.74 282.4-8.74L282.4-8.74Q283.35-8.74 284.12-9.24 284.89-9.74 284.89-10.69L284.89-10.69Q284.89-11.13 284.48-11.52 284.06-11.91 283.23-12.23 282.4-12.55 281.75-12.74 281.11-12.94 280.01-13.21 278.91-13.48 278.59-13.57L278.59-13.57 277.13-13.57Q271.83-15.14 269.5-17.54 267.17-19.95 267.17-23.63L267.17-23.63Q267.17-26.07 268.08-28.03 269-29.98 270.5-31.23 272-32.47 274.03-33.31 276.05-34.16 278.15-34.51 280.25-34.86 282.5-34.86L282.5-34.86Q286.48-34.86 289.88-33.53 293.29-32.2 295.05-30.08L295.05-30.08Q295.68-29.44 296.07-28.47 296.46-27.49 296.57-26.92 296.68-26.34 296.86-25L296.86-25 296.17-24.02 292.02-24.02Q291.34-24.02 289.75-24.07 288.16-24.12 287.28-24.12Z" class="undefined-text-0" data-fill-palette-color="primary" opacity="1" transform="matrix(1,0,0,1,0,0)"/></svg></g></svg></g><g transform="matrix(1,0,0,1,163.310208,57.27884956150256)"><svg width="232.21" height="33.16" viewBox="0 0 232.21 33.16"><g transform="matrix(1,0,0,1,0,0)"><svg width="232.21" height="33.16" data-palette-color="#aaaaaa" viewBox="2.3 -36.83 317.89 45.41"><path id="text-1" fill="#000" d="M22.25-16.2L22.25 0 20.28 0Q19.63 0 19.23-0.2 18.82-0.4 18.7-1.05L18.7-1.05 18.2-3.4Q17.2-2.5 16.25-1.79 15.3-1.07 14.25-0.59 13.2-0.1 12.01 0.15 10.83 0.4 9.38 0.4L9.38 0.4Q7.9 0.4 6.61-0.01 5.33-0.43 4.38-1.25 3.43-2.08 2.86-3.34 2.3-4.6 2.3-6.33L2.3-6.33Q2.3-7.83 3.13-9.21 3.95-10.6 5.79-11.68 7.63-12.75 10.6-13.44 13.58-14.13 17.88-14.23L17.88-14.23 17.88-16.2Q17.88-19.15 16.61-20.66 15.35-22.18 12.88-22.18L12.88-22.18Q11.25-22.18 10.14-21.76 9.03-21.35 8.21-20.84 7.4-20.33 6.81-19.91 6.23-19.5 5.65-19.5L5.65-19.5Q5.2-19.5 4.86-19.74 4.53-19.98 4.33-20.33L4.33-20.33 3.53-21.75Q5.63-23.78 8.05-24.78 10.48-25.78 13.43-25.78L13.43-25.78Q15.55-25.78 17.2-25.08 18.85-24.38 19.98-23.13 21.1-21.88 21.68-20.1 22.25-18.32 22.25-16.2L22.25-16.2ZM10.7-2.73L10.7-2.73Q11.88-2.73 12.85-2.96 13.83-3.2 14.69-3.64 15.55-4.08 16.34-4.7 17.13-5.33 17.88-6.13L17.88-6.13 17.88-11.4Q14.8-11.3 12.65-10.91 10.5-10.53 9.15-9.9 7.8-9.28 7.19-8.43 6.58-7.58 6.58-6.53L6.58-6.53Q6.58-5.53 6.9-4.8 7.23-4.08 7.78-3.61 8.33-3.15 9.08-2.94 9.83-2.73 10.7-2.73ZM44.5-22.78L43.5-21.15Q43.2-20.6 42.57-20.6L42.57-20.6Q42.2-20.6 41.72-20.88 41.25-21.15 40.56-21.49 39.87-21.83 38.92-22.11 37.97-22.4 36.67-22.4L36.67-22.4Q35.55-22.4 34.65-22.11 33.75-21.83 33.11-21.33 32.47-20.83 32.13-20.16 31.8-19.5 31.8-18.73L31.8-18.73Q31.8-17.75 32.36-17.1 32.92-16.45 33.85-15.98 34.77-15.5 35.95-15.14 37.12-14.78 38.36-14.36 39.6-13.95 40.77-13.45 41.95-12.95 42.87-12.2 43.8-11.45 44.36-10.36 44.92-9.28 44.92-7.75L44.92-7.75Q44.92-6 44.3-4.51 43.67-3.03 42.45-1.94 41.22-0.85 39.45-0.23 37.67 0.4 35.35 0.4L35.35 0.4Q32.7 0.4 30.55-0.46 28.4-1.33 26.9-2.68L26.9-2.68 27.95-4.38Q28.15-4.7 28.42-4.88 28.7-5.05 29.15-5.05L29.15-5.05Q29.6-5.05 30.1-4.7 30.6-4.35 31.31-3.93 32.02-3.5 33.03-3.15 34.05-2.8 35.57-2.8L35.57-2.8Q36.87-2.8 37.85-3.14 38.82-3.48 39.47-4.05 40.12-4.63 40.44-5.38 40.75-6.13 40.75-6.98L40.75-6.98Q40.75-8.03 40.19-8.71 39.62-9.4 38.7-9.89 37.77-10.38 36.59-10.74 35.4-11.1 34.16-11.5 32.92-11.9 31.73-12.41 30.55-12.93 29.62-13.7 28.7-14.48 28.14-15.61 27.57-16.75 27.57-18.38L27.57-18.38Q27.57-19.83 28.17-21.16 28.77-22.5 29.92-23.51 31.07-24.53 32.75-25.13 34.42-25.73 36.57-25.73L36.57-25.73Q39.07-25.73 41.06-24.94 43.05-24.15 44.5-22.78L44.5-22.78ZM50.84-36.83L55.32-36.83 55.32-15.15 56.47-15.15Q56.97-15.15 57.3-15.29 57.62-15.43 58.02-15.85L58.02-15.85 66.02-24.43Q66.4-24.83 66.77-25.08 67.15-25.33 67.77-25.33L67.77-25.33 71.82-25.33 62.5-15.4Q62.15-14.98 61.81-14.65 61.47-14.33 61.05-14.08L61.05-14.08Q61.5-13.78 61.86-13.39 62.22-13 62.55-12.5L62.55-12.5 72.45 0 68.45 0Q67.9 0 67.51-0.21 67.12-0.43 66.77-0.88L66.77-0.88 58.45-11.25Q58.07-11.78 57.7-11.94 57.32-12.1 56.57-12.1L56.57-12.1 55.32-12.1 55.32 0 50.84 0 50.84-36.83ZM105.14-16.2L105.14 0 103.17 0Q102.52 0 102.12-0.2 101.72-0.4 101.59-1.05L101.59-1.05 101.09-3.4Q100.09-2.5 99.14-1.79 98.19-1.07 97.14-0.59 96.09-0.1 94.9 0.15 93.72 0.4 92.27 0.4L92.27 0.4Q90.79 0.4 89.5-0.01 88.22-0.43 87.27-1.25 86.32-2.08 85.75-3.34 85.19-4.6 85.19-6.33L85.19-6.33Q85.19-7.83 86.02-9.21 86.84-10.6 88.68-11.68 90.52-12.75 93.49-13.44 96.47-14.13 100.77-14.23L100.77-14.23 100.77-16.2Q100.77-19.15 99.5-20.66 98.24-22.18 95.77-22.18L95.77-22.18Q94.14-22.18 93.03-21.76 91.92-21.35 91.1-20.84 90.29-20.33 89.7-19.91 89.12-19.5 88.54-19.5L88.54-19.5Q88.09-19.5 87.75-19.74 87.42-19.98 87.22-20.33L87.22-20.33 86.42-21.75Q88.52-23.78 90.94-24.78 93.37-25.78 96.32-25.78L96.32-25.78Q98.44-25.78 100.09-25.08 101.74-24.38 102.87-23.13 103.99-21.88 104.57-20.1 105.14-18.32 105.14-16.2L105.14-16.2ZM93.59-2.73L93.59-2.73Q94.77-2.73 95.74-2.96 96.72-3.2 97.58-3.64 98.44-4.08 99.23-4.7 100.02-5.33 100.77-6.13L100.77-6.13 100.77-11.4Q97.69-11.3 95.54-10.91 93.39-10.53 92.04-9.9 90.69-9.28 90.08-8.43 89.47-7.58 89.47-6.53L89.47-6.53Q89.47-5.53 89.79-4.8 90.12-4.08 90.67-3.61 91.22-3.15 91.97-2.94 92.72-2.73 93.59-2.73ZM116.34 0L111.89 0 111.89-25.33 114.54-25.33Q115.49-25.33 115.74-24.4L115.74-24.4 116.09-21.65Q117.74-23.48 119.78-24.6 121.81-25.73 124.49-25.73L124.49-25.73Q126.56-25.73 128.15-25.04 129.74-24.35 130.8-23.09 131.86-21.83 132.41-20.05 132.96-18.28 132.96-16.13L132.96-16.13 132.96 0 128.51 0 128.51-16.13Q128.51-19 127.2-20.59 125.89-22.18 123.19-22.18L123.19-22.18Q121.21-22.18 119.5-21.23 117.79-20.28 116.34-18.65L116.34-18.65 116.34 0ZM160.44-25.33L146.31 7.48Q146.09 7.98 145.75 8.28 145.41 8.58 144.71 8.58L144.71 8.58 141.41 8.58 146.04-1.48 135.59-25.33 139.44-25.33Q140.01-25.33 140.34-25.04 140.66-24.75 140.81-24.4L140.81-24.4 147.59-8.45Q147.81-7.9 147.97-7.35 148.14-6.8 148.26-6.23L148.26-6.23Q148.44-6.8 148.61-7.35 148.79-7.9 149.01-8.47L149.01-8.47 155.59-24.4Q155.74-24.8 156.1-25.06 156.46-25.33 156.89-25.33L156.89-25.33 160.44-25.33ZM194.61 0L191.96 0Q191.01 0 190.76-0.93L190.76-0.93 190.36-4Q188.73-2.02 186.64-0.84 184.56 0.35 181.86 0.35L181.86 0.35Q179.68 0.35 177.91-0.49 176.13-1.33 174.88-2.95 173.63-4.58 172.96-7 172.28-9.43 172.28-12.58L172.28-12.58Q172.28-15.38 173.03-17.79 173.78-20.2 175.19-21.98 176.61-23.75 178.63-24.76 180.66-25.78 183.23-25.78L183.23-25.78Q185.56-25.78 187.21-24.99 188.86-24.2 190.16-22.78L190.16-22.78 190.16-36.83 194.61-36.83 194.61 0ZM183.33-3.25L183.33-3.25Q185.51-3.25 187.14-4.25 188.78-5.25 190.16-7.08L190.16-7.08 190.16-19.33Q188.93-20.98 187.47-21.64 186.01-22.3 184.23-22.3L184.23-22.3Q180.68-22.3 178.78-19.78 176.88-17.25 176.88-12.58L176.88-12.58Q176.88-10.1 177.31-8.34 177.73-6.58 178.56-5.44 179.38-4.3 180.58-3.78 181.78-3.25 183.33-3.25ZM212.33-25.73L212.33-25.73Q215.1-25.73 217.34-24.8 219.58-23.88 221.14-22.18 222.7-20.48 223.54-18.06 224.38-15.65 224.38-12.68L224.38-12.68Q224.38-9.68 223.54-7.28 222.7-4.88 221.14-3.18 219.58-1.48 217.34-0.56 215.1 0.35 212.33 0.35L212.33 0.35Q209.55 0.35 207.31-0.56 205.08-1.48 203.5-3.18 201.93-4.88 201.08-7.28 200.23-9.68 200.23-12.68L200.23-12.68Q200.23-15.65 201.08-18.06 201.93-20.48 203.5-22.18 205.08-23.88 207.31-24.8 209.55-25.73 212.33-25.73ZM212.33-3.13L212.33-3.13Q216.08-3.13 217.93-5.64 219.78-8.15 219.78-12.65L219.78-12.65Q219.78-17.18 217.93-19.7 216.08-22.23 212.33-22.23L212.33-22.23Q210.43-22.23 209.03-21.58 207.63-20.93 206.69-19.7 205.75-18.48 205.29-16.69 204.83-14.9 204.83-12.65L204.83-12.65Q204.83-10.4 205.29-8.63 205.75-6.85 206.69-5.64 207.63-4.42 209.03-3.78 210.43-3.13 212.33-3.13ZM229.28-25.33L233.73-25.33 233.73-9.18Q233.73-6.3 235.05-4.73 236.38-3.15 239.05-3.15L239.05-3.15Q241-3.15 242.73-4.08 244.45-5 245.9-6.65L245.9-6.65 245.9-25.33 250.35-25.33 250.35 0 247.7 0Q246.75 0 246.5-0.93L246.5-0.93 246.15-3.65Q244.5-1.83 242.45-0.71 240.4 0.4 237.75 0.4L237.75 0.4Q235.68 0.4 234.09-0.29 232.5-0.98 231.43-2.23 230.35-3.48 229.81-5.25 229.28-7.03 229.28-9.18L229.28-9.18 229.28-25.33ZM260.7 0L257.82 0 257.82-36.83 262.3-36.83 262.3-21.68Q263.87-23.5 265.91-24.61 267.95-25.73 270.57-25.73L270.57-25.73Q272.77-25.73 274.55-24.9 276.32-24.08 277.57-22.44 278.82-20.8 279.5-18.39 280.17-15.98 280.17-12.83L280.17-12.83Q280.17-10.03 279.42-7.61 278.67-5.2 277.26-3.44 275.85-1.68 273.81-0.66 271.77 0.35 269.22 0.35L269.22 0.35Q266.77 0.35 265.06-0.6 263.35-1.55 262.07-3.25L262.07-3.25 261.85-0.95Q261.65 0 260.7 0L260.7 0ZM269.12-22.18L269.12-22.18Q266.95-22.18 265.31-21.18 263.67-20.18 262.3-18.35L262.3-18.35 262.3-6.1Q263.5-4.45 264.96-3.78 266.42-3.1 268.22-3.1L268.22-3.1Q271.77-3.1 273.67-5.63 275.57-8.15 275.57-12.83L275.57-12.83Q275.57-15.3 275.14-17.07 274.7-18.85 273.87-19.99 273.05-21.13 271.85-21.65 270.65-22.18 269.12-22.18ZM293.3 0.4L293.3 0.4Q290.3 0.4 288.68-1.28 287.07-2.95 287.07-6.1L287.07-6.1 287.07-21.6 284.02-21.6Q283.62-21.6 283.35-21.84 283.07-22.08 283.07-22.58L283.07-22.58 283.07-24.35 287.22-24.88 288.25-32.7Q288.3-33.08 288.57-33.31 288.85-33.55 289.27-33.55L289.27-33.55 291.52-33.55 291.52-24.83 298.77-24.83 298.77-21.6 291.52-21.6 291.52-6.4Q291.52-4.8 292.3-4.03 293.07-3.25 294.3-3.25L294.3-3.25Q295-3.25 295.51-3.44 296.02-3.63 296.4-3.85 296.77-4.08 297.03-4.26 297.3-4.45 297.5-4.45L297.5-4.45Q297.85-4.45 298.12-4.03L298.12-4.03 299.42-1.9Q298.27-0.83 296.65-0.21 295.02 0.4 293.3 0.4ZM319.77-22.78L318.77-21.15Q318.47-20.6 317.84-20.6L317.84-20.6Q317.47-20.6 316.99-20.88 316.52-21.15 315.83-21.49 315.14-21.83 314.19-22.11 313.24-22.4 311.94-22.4L311.94-22.4Q310.82-22.4 309.92-22.11 309.02-21.83 308.38-21.33 307.74-20.83 307.41-20.16 307.07-19.5 307.07-18.73L307.07-18.73Q307.07-17.75 307.63-17.1 308.19-16.45 309.12-15.98 310.04-15.5 311.22-15.14 312.39-14.78 313.63-14.36 314.87-13.95 316.04-13.45 317.22-12.95 318.14-12.2 319.07-11.45 319.63-10.36 320.19-9.28 320.19-7.75L320.19-7.75Q320.19-6 319.57-4.51 318.94-3.03 317.72-1.94 316.49-0.85 314.72-0.23 312.94 0.4 310.62 0.4L310.62 0.4Q307.97 0.4 305.82-0.46 303.67-1.33 302.17-2.68L302.17-2.68 303.22-4.38Q303.42-4.7 303.69-4.88 303.97-5.05 304.42-5.05L304.42-5.05Q304.87-5.05 305.37-4.7 305.87-4.35 306.58-3.93 307.29-3.5 308.31-3.15 309.32-2.8 310.84-2.8L310.84-2.8Q312.14-2.8 313.12-3.14 314.09-3.48 314.74-4.05 315.39-4.63 315.7-5.38 316.02-6.13 316.02-6.98L316.02-6.98Q316.02-8.03 315.45-8.71 314.89-9.4 313.97-9.89 313.04-10.38 311.86-10.74 310.67-11.1 309.43-11.5 308.19-11.9 307-12.41 305.82-12.93 304.89-13.7 303.97-14.48 303.41-15.61 302.84-16.75 302.84-18.38L302.84-18.38Q302.84-19.83 303.44-21.16 304.04-22.5 305.19-23.51 306.34-24.53 308.02-25.13 309.69-25.73 311.84-25.73L311.84-25.73Q314.34-25.73 316.33-24.94 318.32-24.15 319.77-22.78L319.77-22.78Z" class="undefined-text-1" data-fill-palette-color="secondary" opacity="1" transform="matrix(1,0,0,1,0,0)"/></svg></g></svg></g></svg></g></svg></g><g transform="matrix(1,0,0,1,421.57809767634967,0)"><svg width="105.922" height="124.986" viewBox="0 0 105.922 124.986"><g><svg xmlns="http://www.w3.org/2000/svg" id="icon-0" width="105.922" height="124.986" x="0" y="0" class="icon-icon-0" data-fill-palette-color="accent" data-name="Layer 1" viewBox="8.412 0.988 83.147 98.112"><path fill="#000" d="M91.46 36.09a38 38 0 0 0-35.13-35A37.61 37.61 0 0 0 27.8 11.19a38 38 0 0 0-12 27.71 12.61 12.61 0 0 1-1.1 5.16L9 56.69a6.8 6.8 0 0 0 4.07 9.22l2.65 0.88V77a10 10 0 0 0 10 10H36l1.94 6.81a7.24 7.24 0 0 0 9 5L82.17 88.65a7.25 7.25 0 0 0 5-9L82.52 63.46A38.05 38.05 0 0 0 91.46 36.09Zm-16 23.71L73.94 61.4l5.7 20L45.21 91.21l-3.41-12H25.72A2.28 2.28 0 0 1 23.44 77V65.21A5.5 5.5 0 0 0 19.66 60l-3.21-1.06L21.67 47.2a20.24 20.24 0 0 0 1.76-8.29A30.22 30.22 0 0 1 55.8 8.76a30.28 30.28 0 0 1 28 27.89A29.94 29.94 0 0 1 75.47 59.81Zm-17.69-0.36a4.15 4.15 0 1 1-4.15-4.15A4.16 4.16 0 0 1 57.77 59.44Zm9.31-27.8A13.4 13.4 0 0 1 57.94 44.8a0.48 0.48 0 0 0-0.2 0.12v3a4.13 4.13 0 0 1-8.27 0V44.9A8.42 8.42 0 0 1 55.29 37a5.19 5.19 0 0 0 3.53-5.09 5.32 5.32 0 0 0-5.25-5 5.16 5.16 0 0 0-4.64 2.95 4.13 4.13 0 1 1-7.45-3.59 13.38 13.38 0 0 1 12-7.62h0.08A13.57 13.57 0 0 1 67.08 31.64Z" data-fill-palette-color="accent"/></svg></g></svg></g></svg></g></svg><rect width="395.52" height="93.715" fill="none" stroke="none" visibility="hidden"/></g></svg></g></svg>